<?xml version="1.0" encoding="UTF-8" standalone="no"?>
<!-- Created with Inkscape (http://www.inkscape.org/) -->

<svg
   xmlns:dc="http://purl.org/dc/elements/1.1/"
   xmlns:cc="http://creativecommons.org/ns#"
   xmlns:rdf="http://www.w3.org/1999/02/22-rdf-syntax-ns#"
   xmlns:svg="http://www.w3.org/2000/svg"
   xmlns="http://www.w3.org/2000/svg"
   xmlns:sodipodi="http://sodipodi.sourceforge.net/DTD/sodipodi-0.dtd"
   xmlns:inkscape="http://www.inkscape.org/namespaces/inkscape"
   id="svg2"
   version="1.1"
   inkscape:version="0.48.4 r9939"
   width="1200"
   height="700"
   xml:space="preserve"
   sodipodi:docname="ML.svg"><metadata
     id="metadata8"><rdf:RDF><cc:Work
         rdf:about=""><dc:format>image/svg+xml</dc:format><dc:type
           rdf:resource="http://purl.org/dc/dcmitype/StillImage" /><dc:title /></cc:Work></rdf:RDF></metadata><defs
     id="defs6"><clipPath
       clipPathUnits="userSpaceOnUse"
       id="clipPath16"><path
         d="M 0,560 960,560 960,0 0,0 0,560 z"
         id="path18" /></clipPath></defs><sodipodi:namedview
     pagecolor="#ffffff"
     bordercolor="#666666"
     borderopacity="1"
     objecttolerance="10"
     gridtolerance="10"
     guidetolerance="10"
     inkscape:pageopacity="0"
     inkscape:pageshadow="2"
     inkscape:window-width="1366"
     inkscape:window-height="744"
     id="namedview4"
     showgrid="false"
     inkscape:zoom="2.9038518"
     inkscape:cx="591.03207"
     inkscape:cy="341.51413"
     inkscape:window-x="0"
     inkscape:window-y="24"
     inkscape:window-maximized="1"
     inkscape:current-layer="g14" /><g
     id="g10"
     inkscape:groupmode="layer"
     inkscape:label="logo"
     transform="matrix(1.25,0,0,-1.25,0,700)"><g
       id="g12"><g
         id="g14"
         clip-path="url(#clipPath16)"><g
           id="g24"
           transform="translate(583.542,236.3604)"
           style="fill:#280b0b"><path
             inkscape:connector-curvature="0"
             d="m 0,0 c 0.762,-4.357 1.838,-7.64 3.227,-9.848 -1.946,-0.737 -3.61,-0.552 -4.996,0.552 -1.389,1.105 -2.914,2.086 -4.578,2.944 -0.418,1.226 -0.73,3.343 -0.937,6.352 -0.208,3.005 -0.453,6.41 -0.727,10.214 -0.28,3.803 -0.556,7.76 -0.834,11.873 -0.279,4.109 -0.66,7.914 -1.145,11.411 -0.488,3.498 -1.075,6.38 -1.769,8.651 -0.695,2.268 -1.528,3.527 -2.498,3.773 -0.695,0 -1.181,0.153 -1.457,0.461 -0.279,0.304 -0.902,-0.032 -1.872,-1.013 -3.746,-3.681 -6.836,-7.241 -9.263,-10.676 -2.429,-3.436 -4.37,-6.534 -5.828,-9.295 -1.457,-2.759 -2.496,-5.091 -3.121,-6.994 -0.625,-1.904 -1.008,-3.036 -1.145,-3.404 -1.113,-2.702 -2.152,-6.415 -3.122,-11.137 -0.972,-4.725 -1.596,-9.663 -1.873,-14.816 -1.388,-0.369 -2.257,-0.155 -2.602,0.644 -0.349,0.796 -1.145,1.748 -2.393,2.852 0.135,0.614 0.24,2.546 0.311,5.799 0.069,3.249 0.069,7.27 0,12.055 -0.071,4.787 -0.207,9.969 -0.415,15.553 -0.209,5.583 -0.487,11.013 -0.834,16.29 -0.347,5.275 -0.799,10.06 -1.352,14.357 -0.555,4.294 -1.18,7.547 -1.874,9.756 -0.831,0.12 -1.943,-0.493 -3.329,-1.842 -1.388,-1.35 -2.741,-2.975 -4.058,-4.877 -1.322,-1.905 -2.534,-3.773 -3.644,-5.614 -1.111,-1.841 -1.804,-3.192 -2.081,-4.049 -2.776,-6.627 -4.89,-12.18 -6.347,-16.659 -1.457,-4.479 -2.498,-8.283 -3.124,-11.411 -0.624,-3.13 -1.008,-5.798 -1.143,-8.006 -0.14,-2.208 -0.417,-4.418 -0.832,-6.625 -0.282,-3.315 -0.521,-6.199 -0.728,-8.653 -0.211,-2.455 -0.313,-4.877 -0.313,-7.269 0,-2.394 0.068,-4.97 0.207,-7.732 0.137,-2.761 0.344,-6.042 0.625,-9.846 -2.082,-0.121 -3.679,0.214 -4.786,1.011 -1.113,0.8 -2.847,2.181 -5.204,4.143 0.136,1.224 0.343,3.249 0.625,6.073 0.276,2.821 0.552,5.767 0.832,8.835 0.275,3.066 0.52,5.799 0.728,8.19 0.208,2.393 0.313,3.711 0.313,3.958 0.416,4.539 0.692,8.343 0.832,11.412 0.136,3.066 0.277,5.827 0.417,8.282 0.135,2.455 0.239,4.846 0.311,7.179 0.068,2.331 0.104,5.09 0.104,8.283 0.137,2.821 0.242,5.246 0.313,7.271 0.067,2.024 0.104,4.509 0.104,7.454 0,0.367 0.032,2.393 0.103,6.074 0.069,3.68 0.105,7.883 0.105,12.608 0,4.722 -0.073,9.447 -0.208,14.172 -0.141,4.723 -0.417,8.436 -0.832,11.137 -0.14,0.121 -0.105,0.276 0.103,0.459 0.208,0.185 0.381,0.337 0.522,0.461 0.134,0.121 0.134,0.184 0,0.184 -0.141,0 -0.558,-0.063 -1.249,-0.184 -3.055,-1.105 -6.141,-3.345 -9.263,-6.718 -3.122,-3.377 -6.109,-7.363 -8.95,-11.965 -2.847,-4.602 -5.516,-9.45 -8.013,-14.54 -2.498,-5.093 -4.615,-9.848 -6.348,-14.265 -1.737,-4.417 -24.874,-50.843 -25.233,-50.935 -2.875,-1.978 -15.177,-8.051 -22.621,-9.563 -7.443,-1.512 -15.681,-2.729 -18.811,-3.682 -3.135,-0.954 -5.81,-1.623 -8.029,-2.007 -4.948,-0.237 -8.946,-0.062 -11.992,0.526 -3.049,0.59 -5.688,2.822 -7.912,6.711 -0.472,2.44 -0.533,4.918 -0.189,7.426 0.342,2.511 0.972,5.357 1.891,8.538 0.919,3.18 2.046,6.704 3.39,10.564 1.34,3.862 2.899,8.298 4.676,13.318 5.136,13.767 9.264,25.401 12.384,34.897 3.116,9.496 5.541,17.315 7.266,23.46 1.727,6.144 2.913,10.771 3.562,13.883 0.65,3.109 1.101,5.223 1.354,6.334 0.965,0.057 1.85,0.194 2.659,0.402 0.806,0.209 1.644,0.332 2.522,0.368 0.873,0.037 1.799,-0.056 2.779,-0.277 0.974,-0.222 2.112,-0.733 3.42,-1.535 -0.199,-1.002 -0.89,-3.129 -2.078,-6.379 -1.186,-3.251 -2.661,-7.214 -4.419,-11.896 -1.759,-4.68 -3.736,-9.941 -5.926,-15.777 -2.194,-5.838 -4.423,-11.828 -6.691,-17.971 -2.271,-6.145 -4.481,-12.249 -6.63,-18.31 -2.153,-6.065 -4.021,-11.722 -5.604,-16.975 -1.585,-5.254 -2.86,-9.903 -3.829,-13.953 -0.973,-4.048 -1.416,-7.061 -1.327,-9.032 1.077,-2.477 2.9,-4.094 5.473,-4.85 2.569,-0.758 5.496,-0.973 8.779,-0.647 3.278,0.327 9.559,0.459 19.28,2.307 9.721,1.849 19.411,5.552 21.925,6.821 2.514,1.268 21.975,46.473 27.329,58.08 2.35,5.094 4.892,10.216 7.596,15.37 2.707,5.154 5.445,9.692 8.223,13.621 3.329,4.662 6.242,8.219 8.74,10.675 2.498,2.453 2.352,2.927 3.538,3.682 1.63,1.036 3.884,1.869 5.829,2.3 1.941,0.429 3.955,0.276 6.035,-0.459 1.25,-0.368 2.291,-1.536 3.123,-3.498 0.832,-1.964 1.489,-4.141 1.976,-6.534 0.485,-2.393 0.798,-4.786 0.938,-7.178 0.136,-2.394 0.208,-4.142 0.208,-5.246 0,-3.437 -0.104,-6.657 -0.312,-9.663 -0.209,-3.009 -0.417,-6.167 -0.625,-9.48 -0.209,-3.312 -0.452,-6.842 -0.728,-10.584 -0.28,-3.744 -0.488,-8.07 -0.625,-12.976 0.553,2.578 1.561,5.707 3.018,9.387 1.457,3.681 3.155,7.3 5.099,10.861 1.942,3.557 4.164,6.809 6.66,9.754 2.497,2.945 5.204,4.97 8.117,6.075 3.331,0.244 5.481,-1.197 6.453,-4.326 0.968,-3.129 1.665,-7.087 2.081,-11.872 0,-0.492 0.069,-1.688 0.209,-3.589 0.135,-1.904 0.311,-4.112 0.521,-6.627 0.207,-2.515 0.414,-5.154 0.625,-7.914 0.206,-2.761 0.445,-5.217 0.727,-7.362 0.277,-2.149 0.553,-3.865 0.833,-5.153 0.276,-1.29 0.553,-1.749 0.832,-1.38 1.665,2.452 3.467,5.153 5.411,8.097 1.941,2.945 3.955,5.735 6.035,8.374 2.081,2.639 4.195,4.907 6.35,6.811 2.15,1.901 4.267,3.098 6.347,3.59 2.358,0.488 4.268,-0.524 5.725,-3.038 1.456,-2.516 2.601,-5.922 3.431,-10.215 0.834,-4.296 1.491,-9.142 1.981,-14.54 0.484,-5.403 1.004,-10.677 1.56,-15.829 C -1.424,9.109 -0.764,4.354 0,0"
             style="fill:#280b0b;fill-opacity:1;fill-rule:nonzero;stroke:none"
             id="path26" /></g></g></g></g></svg>